<svg xmlns="http://www.w3.org/2000/svg" width="1400" height="460" viewBox="0 0 1400 460" role="img" aria-labelledby="title desc">
  <title id="title">Deployment workflow</title><desc id="desc">Git, project settings, worker execution, containers and public URL.</desc>
  <rect width="1400" height="460" rx="28" fill="#f8fafc"/><path d="M120 230h1160" stroke="#cbd5e1" stroke-width="4" stroke-dasharray="10 12"/>
  <g font-family="Inter,Arial,sans-serif" text-anchor="middle">
    <g transform="translate(90 120)"><rect width="220" height="220" rx="22" fill="#fff" stroke="#fed7aa"/><circle cx="110" cy="64" r="32" fill="#fff7ed"/><path d="M88 64h44M98 50h24M98 78h34" stroke="#f97316" stroke-width="6" stroke-linecap="round"/><text x="110" y="130" font-size="23" font-weight="800" fill="#0f172a">Git source</text><text x="110" y="160" font-size="15" fill="#64748b">Branch + credential</text></g>
    <g transform="translate(360 120)"><rect width="220" height="220" rx="22" fill="#fff" stroke="#bfdbfe"/><circle cx="110" cy="64" r="32" fill="#eff6ff"/><path d="M94 51h32v26H94zM102 43h16" fill="none" stroke="#2563eb" stroke-width="5"/><text x="110" y="130" font-size="23" font-weight="800" fill="#0f172a">Project</text><text x="110" y="160" font-size="15" fill="#64748b">Build + environment</text></g>
    <g transform="translate(630 120)"><rect width="220" height="220" rx="22" fill="#fff" stroke="#99f6e4"/><circle cx="110" cy="64" r="32" fill="#f0fdfa"/><path d="m88 59 22-13 22 13-22 13-22-13Zm5 10 17 10 17-10v18l-17 10-17-10V69Z" fill="#14b8a6"/><text x="110" y="130" font-size="23" font-weight="800" fill="#0f172a">Worker</text><text x="110" y="160" font-size="15" fill="#64748b">Queue + Docker host</text></g>
    <g transform="translate(900 120)"><rect width="220" height="220" rx="22" fill="#fff" stroke="#ddd6fe"/><circle cx="110" cy="64" r="32" fill="#f5f3ff"/><rect x="87" y="42" width="46" height="44" rx="7" fill="none" stroke="#8b5cf6" stroke-width="5"/><path d="M96 55h28M96 68h28" stroke="#8b5cf6" stroke-width="4"/><text x="110" y="130" font-size="23" font-weight="800" fill="#0f172a">Containers</text><text x="110" y="160" font-size="15" fill="#64748b">Compose or Dockerfile</text></g>
    <g transform="translate(1170 150)"><rect width="170" height="160" rx="22" fill="#0f172a"/><path d="M48 73a30 30 0 0 1 52-20l14 14a30 30 0 0 1-21 51" fill="none" stroke="#5eead4" stroke-width="7" stroke-linecap="round"/><text x="85" y="132" font-size="17" font-weight="800" fill="#fff">Public URL</text></g>
  </g><g fill="#64748b"><path d="m342 230-18-12v24z"/><path d="m612 230-18-12v24z"/><path d="m882 230-18-12v24z"/><path d="m1152 230-18-12v24z"/></g>
</svg>
