<svg xmlns="http://www.w3.org/2000/svg" width="1480" height="760" viewBox="0 0 1480 760" role="img" aria-labelledby="title desc">
  <title id="title">Docker Panel Lite platform architecture</title>
  <desc id="desc">A Firebase backed control panel coordinates users, Git repositories, encrypted credentials, jobs, and remote Docker workers.</desc>
  <defs>
    <linearGradient id="bg" x1="0" y1="0" x2="1" y2="1">
      <stop stop-color="#eff6ff"/>
      <stop offset=".52" stop-color="#f8fbff"/>
      <stop offset="1" stop-color="#ecfdf5"/>
    </linearGradient>
    <linearGradient id="blue" x1="0" y1="0" x2="1" y2="1">
      <stop stop-color="#2563eb"/>
      <stop offset="1" stop-color="#0ea5e9"/>
    </linearGradient>
    <linearGradient id="green" x1="0" y1="0" x2="1" y2="1">
      <stop stop-color="#14b8a6"/>
      <stop offset="1" stop-color="#22c55e"/>
    </linearGradient>
    <linearGradient id="amber" x1="0" y1="0" x2="1" y2="1">
      <stop stop-color="#f59e0b"/>
      <stop offset="1" stop-color="#f97316"/>
    </linearGradient>
    <filter id="shadow" x="-20%" y="-20%" width="140%" height="140%">
      <feDropShadow dx="0" dy="22" stdDeviation="22" flood-color="#0f172a" flood-opacity=".14"/>
    </filter>
  </defs>
  <rect width="1480" height="760" rx="44" fill="url(#bg)"/>
  <circle cx="1230" cy="120" r="190" fill="#60a5fa" opacity=".16"/>
  <circle cx="210" cy="600" r="210" fill="#2dd4bf" opacity=".16"/>
  <rect x="76" y="78" width="1328" height="604" rx="34" fill="#ffffff" opacity=".78"/>
  <g filter="url(#shadow)">
    <rect x="118" y="145" width="276" height="186" rx="24" fill="#ffffff" stroke="#bfdbfe"/>
    <rect x="118" y="145" width="276" height="58" rx="24" fill="#eff6ff"/>
    <text x="152" y="181" font-family="Inter, Arial, sans-serif" font-size="18" font-weight="800" fill="#1e3a8a">Operators</text>
    <circle cx="166" cy="248" r="28" fill="url(#blue)"/>
    <path d="M156 250h20M166 240v20" stroke="#fff" stroke-width="4" stroke-linecap="round"/>
    <text x="214" y="244" font-family="Inter, Arial, sans-serif" font-size="22" font-weight="850" fill="#0f172a">Sign in</text>
    <text x="214" y="274" font-family="Inter, Arial, sans-serif" font-size="16" fill="#64748b">Firebase Auth session</text>
  </g>
  <g filter="url(#shadow)">
    <rect x="118" y="430" width="276" height="186" rx="24" fill="#ffffff" stroke="#fed7aa"/>
    <rect x="118" y="430" width="276" height="58" rx="24" fill="#fff7ed"/>
    <text x="152" y="466" font-family="Inter, Arial, sans-serif" font-size="18" font-weight="800" fill="#9a3412">Source layer</text>
    <circle cx="166" cy="533" r="28" fill="url(#amber)"/>
    <path d="M153 533h26M159 523h14M159 543h20" stroke="#fff" stroke-width="4" stroke-linecap="round"/>
    <text x="214" y="529" font-family="Inter, Arial, sans-serif" font-size="22" font-weight="850" fill="#0f172a">Git + secrets</text>
    <text x="214" y="559" font-family="Inter, Arial, sans-serif" font-size="16" fill="#64748b">Repos and encrypted tokens</text>
  </g>
  <g filter="url(#shadow)">
    <rect x="512" y="113" width="456" height="534" rx="30" fill="#0f172a"/>
    <rect x="552" y="153" width="376" height="76" rx="18" fill="#1e293b"/>
    <text x="592" y="183" font-family="Inter, Arial, sans-serif" font-size="17" font-weight="850" fill="#93c5fd">CONTROL PANEL</text>
    <text x="592" y="210" font-family="Inter, Arial, sans-serif" font-size="15" fill="#cbd5e1">Next.js dashboard + Firebase Realtime Database</text>
    <rect x="552" y="274" width="168" height="108" rx="18" fill="#1d4ed8"/>
    <text x="582" y="316" font-family="Inter, Arial, sans-serif" font-size="18" font-weight="850" fill="#fff">Jobs</text>
    <text x="582" y="344" font-family="Inter, Arial, sans-serif" font-size="14" fill="#dbeafe">sync, build, deploy</text>
    <rect x="760" y="274" width="168" height="108" rx="18" fill="#0f766e"/>
    <text x="844" y="316" text-anchor="middle" font-family="Inter, Arial, sans-serif" font-size="18" font-weight="850" fill="#fff">Access</text>
    <text x="844" y="344" text-anchor="middle" font-family="Inter, Arial, sans-serif" font-size="13" fill="#ccfbf1">private, shared, public</text>
    <rect x="552" y="426" width="168" height="108" rx="18" fill="#b45309"/>
    <text x="582" y="468" font-family="Inter, Arial, sans-serif" font-size="18" font-weight="850" fill="#fff">State</text>
    <text x="582" y="496" font-family="Inter, Arial, sans-serif" font-size="14" fill="#fef3c7">containers and logs</text>
    <rect x="760" y="426" width="168" height="108" rx="18" fill="#7c3aed"/>
    <text x="790" y="468" font-family="Inter, Arial, sans-serif" font-size="18" font-weight="850" fill="#fff">URLs</text>
    <text x="790" y="496" font-family="Inter, Arial, sans-serif" font-size="14" fill="#ede9fe">public tunnel links</text>
  </g>
  <g filter="url(#shadow)">
    <rect x="1086" y="145" width="276" height="186" rx="24" fill="#ffffff" stroke="#99f6e4"/>
    <rect x="1086" y="145" width="276" height="58" rx="24" fill="#f0fdfa"/>
    <text x="1120" y="181" font-family="Inter, Arial, sans-serif" font-size="18" font-weight="800" fill="#0f766e">Worker hosts</text>
    <circle cx="1134" cy="248" r="28" fill="url(#green)"/>
    <path d="M1134 229 1157 242 1134 255 1111 242l23-13Zm-19 21 17 10v21l-17-10v-21Zm38 0v21l-17 10v-21l17-10Z" fill="#fff"/>
    <text x="1176" y="239" font-family="Inter, Arial, sans-serif" font-size="19" font-weight="850" fill="#0f172a">Docker</text>
    <text x="1176" y="263" font-family="Inter, Arial, sans-serif" font-size="19" font-weight="850" fill="#0f172a">runtime</text>
    <text x="1176" y="291" font-family="Inter, Arial, sans-serif" font-size="13" fill="#64748b">VPS, lab, local hosts</text>
  </g>
  <g filter="url(#shadow)">
    <rect x="1086" y="430" width="276" height="186" rx="24" fill="#ffffff" stroke="#ddd6fe"/>
    <rect x="1086" y="430" width="276" height="58" rx="24" fill="#f5f3ff"/>
    <text x="1120" y="466" font-family="Inter, Arial, sans-serif" font-size="18" font-weight="800" fill="#6d28d9">Live services</text>
    <circle cx="1134" cy="533" r="28" fill="#8b5cf6"/>
    <path d="M1122 538a17 17 0 0 1 24-24l10 10a17 17 0 0 1-12 29" fill="none" stroke="#fff" stroke-width="5" stroke-linecap="round"/>
    <text x="1176" y="524" font-family="Inter, Arial, sans-serif" font-size="19" font-weight="850" fill="#0f172a">Containers</text>
    <text x="1176" y="548" font-family="Inter, Arial, sans-serif" font-size="19" font-weight="850" fill="#0f172a">+ URLs</text>
    <text x="1176" y="576" font-family="Inter, Arial, sans-serif" font-size="13" fill="#64748b">Apps, logs, previews</text>
  </g>
  <path d="M394 238h96" stroke="#2563eb" stroke-width="5" stroke-linecap="round"/>
  <path d="m472 221 22 17-22 17" fill="none" stroke="#2563eb" stroke-width="5" stroke-linecap="round" stroke-linejoin="round"/>
  <path d="M394 523h96" stroke="#f97316" stroke-width="5" stroke-linecap="round"/>
  <path d="m472 506 22 17-22 17" fill="none" stroke="#f97316" stroke-width="5" stroke-linecap="round" stroke-linejoin="round"/>
  <path d="M970 238h94" stroke="#14b8a6" stroke-width="5" stroke-linecap="round"/>
  <path d="m1046 221 22 17-22 17" fill="none" stroke="#14b8a6" stroke-width="5" stroke-linecap="round" stroke-linejoin="round"/>
  <path d="M970 523h94" stroke="#8b5cf6" stroke-width="5" stroke-linecap="round"/>
  <path d="m1046 506 22 17-22 17" fill="none" stroke="#8b5cf6" stroke-width="5" stroke-linecap="round" stroke-linejoin="round"/>
  <text x="442" y="218" text-anchor="middle" font-family="Inter, Arial, sans-serif" font-size="13" font-weight="850" fill="#1d4ed8">SESSION</text>
  <text x="442" y="503" text-anchor="middle" font-family="Inter, Arial, sans-serif" font-size="13" font-weight="850" fill="#c2410c">CONFIG</text>
  <text x="1018" y="218" text-anchor="middle" font-family="Inter, Arial, sans-serif" font-size="13" font-weight="850" fill="#0f766e">LEASE</text>
  <text x="1018" y="503" text-anchor="middle" font-family="Inter, Arial, sans-serif" font-size="13" font-weight="850" fill="#6d28d9">RESULTS</text>
</svg>
