<svg xmlns="http://www.w3.org/2000/svg" viewBox="0 0 320 80" role="img" aria-labelledby="title desc">
  <title id="title">worqer.app logo</title>
  <desc id="desc">Worqer wordmark with a software container connected to an active worker</desc>
  <defs>
    <linearGradient id="surface" x1="6" y1="3" x2="75" y2="77" gradientUnits="userSpaceOnUse">
      <stop stop-color="#172554"/>
      <stop offset=".52" stop-color="#0f172a"/>
      <stop offset="1" stop-color="#07111f"/>
    </linearGradient>
    <linearGradient id="container" x1="16" y1="27" x2="65" y2="64" gradientUnits="userSpaceOnUse">
      <stop stop-color="#60a5fa"/>
      <stop offset="1" stop-color="#2dd4bf"/>
    </linearGradient>
  </defs>
  <rect x="4" y="4" width="72" height="72" rx="18" fill="url(#surface)"/>
  <path d="m17 32 9-6h36l-9 6H17Z" fill="#bfdbfe"/>
  <rect x="16" y="31" width="47" height="33" rx="5" fill="url(#container)"/>
  <path d="M26 39v17M36 39v17M46 39v17M56 39v17" stroke="#e0f2fe" stroke-width="3" stroke-linecap="round" opacity=".82"/>
  <path d="M52 26v-4a5 5 0 0 1 5-5h2" fill="none" stroke="#fff" stroke-width="3" stroke-linecap="round"/>
  <circle cx="64" cy="17" r="6" fill="#0f172a" stroke="#fff" stroke-width="3"/>
  <circle cx="64" cy="17" r="2.7" fill="#2dd4bf"/>
  <path d="M22 64v4M57 64v4" stroke="#fff" stroke-width="3" stroke-linecap="round"/>
  <text x="94" y="51" fill="#0f172a" font-family="-apple-system,BlinkMacSystemFont,'Segoe UI',sans-serif" font-size="39" font-weight="760" letter-spacing="-1.4">worqer</text>
  <text x="239" y="51" fill="#64748b" font-family="-apple-system,BlinkMacSystemFont,'Segoe UI',sans-serif" font-size="25" font-weight="650">.app</text>
</svg>
