<svg xmlns="http://www.w3.org/2000/svg" width="1800" height="520" viewBox="0 0 1800 520" role="img" aria-labelledby="title desc">
  <title id="title">Claim a worker from the Containers view</title>
  <desc id="desc">The Docker Panel Containers screen with the Workers view selected, a Worker token field, and a plus button used to claim a worker.</desc>
  <rect width="1800" height="520" fill="#f6f7f6"/>
  <rect width="274" height="520" fill="#eeefed"/>
  <path d="M274 0v520" stroke="#dadcda" stroke-width="2"/>
  <rect x="22" y="104" width="48" height="48" rx="11" fill="#171918"/>
  <rect x="36" y="118" width="21" height="17" rx="3" fill="none" stroke="#fff" stroke-width="2"/>
  <circle cx="52" cy="126" r="2" fill="#fff"/>
  <path d="M40 137h13" stroke="#fff" stroke-width="2" stroke-linecap="round"/>
  <text x="83" y="126" font-family="Arial, sans-serif" font-size="20" font-weight="700" fill="#171918">Control</text>
  <text x="83" y="148" font-family="Arial, sans-serif" font-size="14" fill="#7b827f">Container workspace</text>
  <text x="22" y="202" font-family="Arial, sans-serif" font-size="16" font-weight="700" letter-spacing="2" fill="#717875">WORKSPACE</text>
  <rect x="20" y="226" width="164" height="52" rx="10" fill="#fff" stroke="#d9dbd9"/>
  <path d="M45 244 53 249 45 254 37 249l8-5Zm-7 9 6 4v9l-6-4v-9Zm14 0v9l-6 4v-9l6-4Z" fill="#171918"/>
  <text x="68" y="259" font-family="Arial, sans-serif" font-size="17" font-weight="700" fill="#171918">Containers</text>
  <path d="M45 302a10 10 0 1 0 0 20 10 10 0 0 0 0-20Zm0 3.5a6.5 6.5 0 0 1 2 12.7v-2.4c0-.9-.3-1.6-.8-2.1 2.6-.3 5.3-1.3 5.3-5.6 0-1.2-.4-2.2-1.2-3-.1-.3-.5-1.5.1-2.9 0 0-1-.3-3.2 1.1a11 11 0 0 0-4.4 0c-2.2-1.4-3.2-1.1-3.2-1.1-.6 1.4-.2 2.6-.1 2.9-.8.8-1.2 1.8-1.2 3 0 4.3 2.7 5.3 5.3 5.6-.4.4-.7.9-.8 1.7-1 .5-3.3 1.3-4.8-1.4-.9-1.5-2.2-1.6-2.2-1.6-1.4 0-.1.9-.1.9.9.4 1.5 2 1.5 2 .8 2.3 3.3 2.4 4.1 1.9v2.8A6.5 6.5 0 0 1 45 305.5Z" fill="#171918"/>
  <text x="68" y="319" font-family="Arial, sans-serif" font-size="17" font-weight="600" fill="#666d6a">Repositories</text>
  <rect x="304" y="24" width="590" height="56" rx="12" fill="#f0f1ef" stroke="#d9dbd9"/>
  <text x="326" y="59" font-family="Arial, sans-serif" font-size="17" fill="#8a918e">Search containers...</text>
  <rect x="906" y="24" width="290" height="56" rx="13" fill="#eceeec" stroke="#d9dbd9"/>
  <g fill="#5f6663">
    <rect x="932" y="39" width="19" height="25" rx="2"/><path d="M935 43h13v2h-13zm0 5h13v2h-13zm0 5h13v2h-13zm0 5h13v2h-13z" fill="#eceeec"/>
    <path d="M985 41 998 48l-13 7-13-7 13-7Zm-11 12 11 6 11-6v5l-11 6-11-6v-5Z"/>
  </g>
  <rect x="1008" y="29" width="46" height="46" rx="10" fill="#fff"/>
  <g transform="translate(1019 39)" fill="none" stroke="#171918" stroke-width="2"><rect x="1" y="1" width="23" height="16" rx="2"/><path d="M7 22h12M13 17v5M5 6h2M10 6h10M5 11h2M10 11h10"/></g>
  <g transform="translate(1073 40)" fill="#5f6663"><rect x="3" y="1" width="18" height="23" rx="2"/><path d="M6 5h12v2H6zm0 4h12v2H6zm0 4h12v2H6zm0 4h8v2H6z" fill="#eceeec"/></g>
  <g transform="translate(1122 40)" fill="none" stroke="#5f6663" stroke-width="2"><rect x="1" y="3" width="24" height="17" rx="2"/><path d="m6 8 4 4-4 4M13 16h7"/></g>
  <path d="M1170 43a11 11 0 0 0-18 5m18-5v-5m0 5h-5m-14 12a11 11 0 0 0 18-5m-18 5v5m0-5h5" fill="none" stroke="#5f6663" stroke-width="2"/>
  <rect x="304" y="112" width="1462" height="154" rx="12" fill="#fff" stroke="#d7dad8" stroke-width="2"/>
  <text x="322" y="144" font-family="Arial, sans-serif" font-size="17" font-weight="700" fill="#171918">Workers</text>
  <text x="322" y="168" font-family="Arial, sans-serif" font-size="15" font-weight="600" fill="#5f6663">1/1 online</text>
  <rect x="1505" y="128" width="201" height="43" rx="9" fill="#fff" stroke="#d7dad8"/>
  <text x="1522" y="155" font-family="Arial, sans-serif" font-size="14" fill="#8a918e">Worker token</text>
  <rect x="1714" y="128" width="38" height="43" rx="9" fill="#fff" stroke="#cfd2d0"/>
  <path d="M1733 139v21M1722.5 149.5h21" stroke="#171918" stroke-width="2" stroke-linecap="round"/>
  <path d="M304 183h1462" stroke="#e1e3e1"/>
  <rect x="318" y="194" width="1434" height="58" rx="10" fill="#fafbfa" stroke="#dcdfdd"/>
  <rect x="332" y="208" width="83" height="31" rx="15.5" fill="#e5fff0" stroke="#67e79a"/>
  <circle cx="350" cy="223.5" r="5" fill="#2ebf69"/>
  <text x="363" y="229" font-family="Arial, sans-serif" font-size="15" font-weight="700" fill="#278d52">Online</text>
  <text x="432" y="220" font-family="Arial, sans-serif" font-size="16" font-weight="700" fill="#171918">Mexica</text>
  <text x="432" y="240" font-family="Arial, sans-serif" font-size="14" fill="#737a77">default · 0/2 jobs · Private · 11s ago</text>
  <path d="m1725 218 7 7-7 7" fill="none" stroke="#747b78" stroke-width="2"/>
  <rect x="304" y="294" width="1462" height="124" rx="12" fill="#fff" stroke="#d7dad8" stroke-width="2"/>
  <path d="m337 347 7 7-7 7" fill="none" stroke="#6d7471" stroke-width="2"/>
  <rect x="367" y="314" width="50" height="50" rx="12" fill="#fff" stroke="#80a9ff" stroke-width="2"/>
  <g transform="translate(378 325)" fill="none" stroke="#171918" stroke-width="2.6"><rect width="28" height="21" rx="2"/><path d="M7 29h14M14 21v8M6 6h3M12 6h10M6 12h3M12 12h10"/></g>
  <text x="433" y="338" font-family="Arial, sans-serif" font-size="19" font-weight="700" fill="#171918">Mexica</text>
  <text x="433" y="362" font-family="Arial, sans-serif" font-size="16" font-weight="600" fill="#6a716e">3 stacks · 5 running · 1 stopped</text>
  <circle cx="1721" cy="355" r="19" fill="#fff" stroke="#d8dbd9"/>
  <text x="1721" y="361" text-anchor="middle" font-family="Arial, sans-serif" font-size="15" fill="#5f6663">6</text>
  <rect x="1490" y="116" width="269" height="65" rx="12" fill="none" stroke="#6154d6" stroke-width="3" stroke-dasharray="8 7"/>
  <text x="1490" y="103" font-family="Arial, sans-serif" font-size="14" font-weight="700" fill="#6154d6">PASTE TOKEN AND CLAIM</text>
</svg>

